<svg height="16" viewBox="0 0 16 16" width="16" xmlns="http://www.w3.org/2000/svg"><path d="m8.42105 7.57895h2.94735c.2326 0 .4211.18851.4211.42105s-.1885.42105-.4211.42105h-2.94735v2.94735c0 .2326-.18851.4211-.42105.4211s-.42105-.1885-.42105-.4211v-2.94735h-2.94737c-.23254 0-.42105-.18851-.42105-.42105s.18851-.42105.42105-.42105h2.94737v-2.94737c0-.23254.18851-.42105.42105-.42105s.42105.18851.42105.42105zm-8.42105-5.47369c0-1.162702.942558-2.10526 2.10526-2.10526h11.78944c1.1627 0 2.1053.942558 2.1053 2.10526v11.78944c0 1.1627-.9426 2.1053-2.1053 2.1053h-11.78944c-1.162702 0-2.10526-.9426-2.10526-2.1053zm.842105 0v11.78944c0 .6977.565535 1.2632 1.263155 1.2632h11.78944c.6977 0 1.2632-.5655 1.2632-1.2632v-11.78944c0-.69762-.5655-1.263155-1.2632-1.263155h-11.78944c-.69762 0-1.263155.565535-1.263155 1.263155z"></path></svg>