<svg height="24" viewBox="0 0 24 24" width="24" xmlns="http://www.w3.org/2000/svg"><path d="m10.8 22.7341v-1.4856l-2.22426-2.2242c-.11253-.1126-.17574-.2652-.17574-.4243v-3.3515l-1.02426-1.0242c-.11253-.1126-.17574-.2652-.17574-.4243v-1.2c0-.3314.26863-.6.6-.6h6c.9941 0 1.8.8059 1.8 1.8v1.2c0 .3314.2686.6.6.6.9941 0 1.8.8059 1.8 1.8 0 .3314.2686.6.6.6h2.3813c1.1488-1.7161 1.8187-3.7798 1.8187-6 0-4.70239-3.0053-8.70285-7.2-10.18546v1.18546c0 1.65685-1.3431 3-3 3h-1.2c-.3314 0-.6.26863-.6.6v1.2c0 .99411-.80589 1.8-1.8 1.8h-1.8v.6c0 .1591-.06321.3117-.17574.4243l-1.2 1.2c-.23431.2343-.61421.2343-.84852 0l-3.22833-3.22836c-.35515 1.07019-.54741 2.21466-.54741 3.40406 0 5.5591 4.20006 10.1372 9.6 10.7341zm1.2.0659c3.1986 0 6.0724-1.3905 8.05-3.6h-1.45c-.9941 0-1.8-.8059-1.8-1.8 0-.3314-.2686-.6-.6-.6-.9941 0-1.8-.8059-1.8-1.8v-1.2c0-.3314-.2686-.6-.6-.6h-5.4v.3515l1.02426 1.0242c.11253.1126.17574.2652.17574.4243v3.3515l2.2243 2.2242c.1125.1126.1757.2652.1757.4243zm-.4911 1.1901c-.0353.0065-.0717.0099-.1089.0099-.0589 0-.1157-.0085-.1695-.0243-6.26884-.3967-11.2305-5.6068-11.2305-11.9757 0-6.62742 5.37258-12 12-12 6.6274 0 12 5.37258 12 12 0 6.6274-5.3726 12-12 12-.1645 0-.3282-.0033-.4911-.0099zm-9.27581-16.60554 3.16691 3.16694.6-.60003v-.95147c0-.33137.26863-.6.6-.6h2.4c.33137 0 .6-.26863.6-.6v-1.2c0-.99411.8059-1.8 1.8-1.8h1.2c.9941 0 1.8-.80589 1.8-1.8v-1.53238c-.7719-.17515-1.5751-.26762-2.4-.26762-4.31343 0-8.03626 2.52871-9.76691 6.18456z"></path></svg>