<svg height="16" viewBox="0 0 12 16" width="12" xmlns="http://www.w3.org/2000/svg"><path d="m8.36364 8h1.09091v-6.18182c0-.60249-.48842-1.090907-1.09091-1.090907h-6.54546c-.60249 0-1.090907.488417-1.090907 1.090907v6.18182h1.090907v-.26736c0-.63866.33509-1.23049.88274-1.55908l.70543-.42326c-.31067-.37697-.49726-.86003-.49726-1.38666 0-1.20499.97683-2.18182 2.18182-2.18182 1.20498 0 2.18182.97683 2.18182 2.18182 0 .52663-.18659 1.00969-.49726 1.38666l.70543.42326c.54765.32859.88274.92042.88274 1.55908zm-.72728 0v-.26736c0-.3832-.20105-.73829-.52964-.93545l-.91533-.54919c-.32307.18908-.69912.29745-1.10048.29745s-.77741-.10837-1.10048-.29745l-.91533.54919c-.32859.19716-.52965.55225-.52965.93545v.26736zm1.81819.72727h-8.727277v4.00003c0 .6025.488417 1.0909 1.090907 1.0909h6.54546c.60249 0 1.09091-.4884 1.09091-1.0909zm.69685-7.24227c.845.1565 1.485.89738 1.485 1.78773v10.90907c0 1.0042-.8141 1.8182-1.81822 1.8182h-6.54545c-.89035 0-1.63123-.64-1.78773-1.485-.845029-.1565-1.485-.8974-1.485-1.7877v-10.90912c0-1.004152.814028-1.81818 1.81818-1.81818h6.54546c.89035 0 1.63122.639971 1.78776 1.485zm-7.90751 13.0605c.14976.4237.55385.7272 1.02884.7272h6.54545c.60252 0 1.09092-.4884 1.09092-1.0909v-10.90907c0-.47499-.3036-.87908-.7273-1.02884v10.48341c0 1.0041-.81401 1.8182-1.81816 1.8182zm2.84702-8.72732c.80332 0 1.45454-.65122 1.45454-1.45454 0-.80333-.65122-1.45455-1.45454-1.45455s-1.45455.65122-1.45455 1.45455c0 .80332.65123 1.45454 1.45455 1.45454zm-2.54546 5.09092c-.20083 0-.36363-.1628-.36363-.3636 0-.2009.1628-.3637.36363-.3637h5.09091c.20083 0 .36364.1628.36364.3637 0 .2008-.16281.3636-.36364.3636zm0 1.4545c-.20083 0-.36363-.1628-.36363-.3636s.1628-.3636.36363-.3636h3.63637c.20083 0 .36363.1628.36363.3636s-.1628.3636-.36363.3636z"></path></svg>