<svg fill="none" height="80" viewBox="0 0 482 80" width="482" xmlns="http://www.w3.org/2000/svg" xmlns:xlink="http://www.w3.org/1999/xlink"><clipPath id="a"><path d="m0 0h481.404v80h-481.404z"/></clipPath><g clip-path="url(#a)"><path clip-rule="evenodd" d="m445.26 40.8392c0 2.5174.984 5.4545 3.516 7.4126 1.687 1.2587 4.078 2.2377 7.453 2.2377 3.376 0 5.626-.979 7.314-2.2377 2.531-1.9581 3.375-5.035 3.375-7.2728 0-2.2377-.844-5.3147-3.235-7.2727-1.687-1.2587-4.078-2.2378-7.313-2.2378s-5.766.8392-7.454 2.0979c-2.813 1.9581-3.656 4.8951-3.656 7.2728zm21.939-20.9791h14.205v52.8672c0 2.3776-.704 4.1958-1.969 5.4545-1.266 1.2588-3.094 1.8182-5.485 1.8182h-36.425v-12.4476h29.534v-13.7062l-.141.4195c-2.672 4.7553-7.313 8.8112-16.174 8.8112-5.484 0-9.704-1.6783-12.798-4.3356-4.641-4.056-6.75-10.6294-6.75-17.7623 0-7.1328 2.109-13.5664 6.75-17.6224 3.094-2.6573 7.314-4.3356 12.798-4.3356 9.283 0 13.783 4.4755 16.174 8.8112l.141.4195v-8.3916zm-130.231 20.9791c0 2.5174.985 5.4545 3.516 7.4126 1.688 1.2587 4.079 2.2377 7.454 2.2377s5.626-.979 7.313-2.2377c2.532-1.9581 3.376-5.035 3.376-7.2728 0-2.2377-.844-5.3147-3.235-7.2727-1.688-1.2587-4.079-2.2378-7.313-2.2378-3.376 0-5.766.8392-7.454 2.0979-2.672 1.9581-3.657 4.8951-3.657 7.2728zm5.626 22.2377c-5.485 0-9.704-1.6783-12.939-4.3356-4.641-4.056-6.75-10.6294-6.75-17.7623 0-7.1328 2.109-13.5664 6.75-17.6224 3.094-2.6573 7.313-4.3356 12.939-4.3356 9.282 0 13.782 4.4755 16.173 8.8112l.141.4195v-8.2517h14.204v42.3776h-14.204v-8.3916l-.141.4196c-2.531 4.6154-7.313 8.6713-16.173 8.6713zm49.786-37.2028v4.4756l.14-.5595c2.251-6.1538 7.735-10.7692 16.877-10.7692 5.485 0 9.985 1.8182 12.939 5.3147 3.094 3.4965 4.641 8.6713 4.641 15.3846v22.3776h-14.345v-20c0-5.3147-.985-8.3916-3.798-9.6503-1.265-.5595-2.812-.8392-4.781-.8392-4.079 0-7.454 1.1189-9.564 4.4755-1.547 2.3776-2.391 5.8741-2.391 11.049v15.2447h-14.204v-42.5175h6.61c4.922 0 7.876 2.2378 7.876 6.014zm-203.644 36.3637v-.4196-20.1399c0-2.6573-.141-4.6154-.562-6.1538-.422-1.5385-.985-2.5175-1.829-3.0769-.844-.5595-1.969-.8392-3.516-.8392-2.109 0-3.797.4196-5.063 1.3986-1.828 1.3986-2.812 3.7762-3.375 7.1329-.281 2.2377-.422 4.8951-.422 7.972v14.1259h-14.204v-42.3777h6.61c4.641 0 7.594 2.2378 7.594 6.014v3.4965l.141-.5594c1.969-5.3147 6.188-9.7902 14.064-9.7902 1.828 0 3.515.2797 4.922.6993.562.1398.984.4196 1.406.5594 3.094 1.5385 4.923 4.3357 5.907 7.972l.141.2798.14-.2798c2.391-5.1748 7.173-9.3706 15.47-9.3706 3.657 0 6.61.8392 8.861 2.3776 5.203 3.6364 6.75 10.7693 6.75 19.4406v21.2587h-14.204v-20.2797c0-2.7972-.141-4.8951-.563-6.4335-.422-1.5385-.984-2.5175-1.969-3.077-.843-.4195-1.969-.6993-3.234-.6993-2.251 0-3.938.5595-5.204 1.5385s-2.109 2.5175-2.672 4.6154c-.703 2.6573-.984 6.1538-.984 10.3496v14.1259h-14.205zm61.318-25.4546h17.439c-.422-4.7552-3.656-7.2727-8.86-7.2727-4.922-.1399-8.298 2.5175-8.579 7.2727zm24.19 11.7483s.703.1398 6.891.8391c-2.109 8.2518-10.126 13.7063-22.221 13.7063-7.172 0-13.079-2.2377-17.017-6.1538-4.078-3.9161-6.329-9.5105-6.329-16.0839 0-6.8532 2.391-12.3077 6.329-16.084 4.079-3.7762 9.704-5.8741 16.314-5.8741 7.313 0 13.22 1.9581 17.158 5.5944 3.938 3.6364 6.047 8.9511 6.047 15.6644v3.6363h-31.643v.1399c.281 2.6573 1.125 4.7552 2.672 6.1538s3.657 2.0979 6.329 2.0979c4.36 0 7.454-1.6783 8.438-4.8951 6.329 1.1189 7.032 1.2588 7.032 1.2588zm11.673 13.7063v-42.3777h6.61c4.641 0 7.594 2.2378 7.594 6.014v6.1539l.141-.6993c1.969-6.7133 7.032-11.4686 15.47-11.4686h4.782v12.5875h-9.282c-3.516 0-6.329.8391-8.298 2.937-1.969 2.2378-3.094 5.8741-3.094 11.6084v15.2448zm-165.531-21.2588c0 2.5175.985 5.4546 3.516 7.4126 1.688 1.2587 4.078 2.2378 7.454 2.2378 3.375 0 5.625-.9791 7.313-2.2378 2.531-1.958 3.375-5.035 3.375-7.2727 0-2.3776-.844-5.3147-3.234-7.2727-1.688-1.2588-4.079-2.2378-7.314-2.2378-3.234 0-5.766.8392-7.453 2.0979-2.672 1.958-3.657 4.8951-3.657 7.2727zm-13.361 0c0-6.014 1.688-10.7692 4.641-14.2657 4.36-5.3147 11.533-7.6923 19.549-7.6923 7.876 0 15.048 2.5175 19.549 7.6923 2.953 3.4965 4.641 8.2517 4.641 14.2657s-1.688 10.7692-4.641 14.4056c-4.36 5.3147-11.532 7.8322-19.549 7.8322-8.016 0-15.189-2.5175-19.549-7.8322-2.953-3.4965-4.641-8.2517-4.641-14.4056zm-38.3937 0c0 2.5175.9845 5.4546 3.5159 7.4126 1.6877 1.2587 4.0785 2.2378 7.4539 2.2378 3.3753 0 5.6255-.9791 7.3131-2.2378 2.5315-1.958 3.3753-5.035 3.3753-7.2727 0-2.3776-.8438-5.3147-3.2346-7.2727-1.6877-1.2588-4.0785-2.2378-7.3132-2.2378-3.3753 0-5.7662.8392-7.4538 2.0979-2.6721 1.958-3.6566 4.8951-3.6566 7.2727zm-13.5012 0c0-6.014 1.6876-10.7692 4.641-14.2657 4.3598-5.3147 11.5323-7.6923 19.5487-7.6923 7.8757 0 15.0482 2.5175 19.5487 7.6923 2.9535 3.4965 4.6405 8.2517 4.6405 14.2657s-1.687 10.7692-4.6405 14.4056c-4.3598 5.3147-11.5324 7.8322-19.5487 7.8322-8.0164 0-15.1889-2.5175-19.5487-7.8322-2.8127-3.4965-4.641-8.2517-4.641-14.4056zm-40.785-18.6014v27.4126l15.1889-.1399c1.6876 0 3.2346-.1398 4.3597-.4195 1.1251-.2798 2.1096-.8392 2.6722-1.5385.4219-.6993.7031-1.5385.7031-2.6573 0-1.8182-.7031-2.9371-1.9689-3.9161-.8438-.6993-1.9689-1.3986-3.3753-2.2378l-4.2191-2.5175c-2.5315-1.5384-4.6411-3.3566-4.6411-7.2727 0-3.3566 1.547-5.035 3.3753-6.8531l2.3909-2.0979c1.2657-.9791 2.3908-2.2378 2.3908-3.9161 0-1.2588-.5625-2.2378-1.8283-2.7972-1.1251-.5595-2.8127-.979-4.9223-.979-2.9534 0-5.4849.5594-7.3132 2.0979-1.8283 1.6783-2.8127 4.0559-2.8127 7.8321zm-14.3451 39.8602v-41.5385c0-6.014 1.68765-10.4895 4.50041-13.70629 4.35978-5.03497 11.39169-6.99301 19.54869-6.99301 15.0482 0 21.3769 6.85315 21.3769 14.1259 0 2.7972-.9844 5.4545-3.3753 7.8321l-2.6721 2.5175c-1.2657 1.2588-1.8283 1.9581-1.8283 3.0769 0 .9791.5626 1.6784 1.2658 2.2378.7031.5594 1.6876.979 2.8127 1.6783l2.8128 1.8182c3.3753 1.9581 7.3131 5.1748 7.3131 12.7273 0 11.7482-9.2821 16.2238-20.2518 16.2238z" fill="#fff" fill-rule="evenodd"/></g></svg>